<?xml version="1.0" encoding="utf-8"?>
<!-- Generator: Adobe Illustrator 26.0.3, SVG Export Plug-In . SVG Version: 6.00 Build 0)  -->
<svg version="1.1" id="Layer_1" xmlns="http://www.w3.org/2000/svg" xmlns:xlink="http://www.w3.org/1999/xlink" x="0px" y="0px"
	 viewBox="0 0 131.3 50.8" style="enable-background:new 0 0 131.3 50.8;" xml:space="preserve">
<style type="text/css">
	.st0{fill:#325CE8;}
	.st1{fill:url(#SVGID_1_);}
	.st2{fill:#FFFFFF;}
	.st3{fill:url(#SVGID_00000129917763103455183170000013528382577444673981_);}
	.st4{fill:none;}
	.st5{fill:#0B2845;}
</style>
<g transform="translate(12283 134)">
	<path class="st0" d="M-12238-118.2v18.2c0,2.4-1.3,4.6-3.4,5.8l-19.1,11l-19.1-11c-2.1-1.2-3.4-3.4-3.4-5.8v-18.2
		c0-2.4,1.3-4.6,3.4-5.8l15.7-9.1c2.1-1.2,4.7-1.2,6.8,0l15.8,9.1C-12239.3-122.8-12238-120.6-12238-118.2"/>
	
		<linearGradient id="SVGID_1_" gradientUnits="userSpaceOnUse" x1="-12694.3037" y1="329.1603" x2="-12695.3037" y2="329.1343" gradientTransform="matrix(20.931 0 0 -7.601 253456.1719 2399.5061)">
		<stop  offset="0" style="stop-color:#F9F9F9"/>
		<stop  offset="0.75" style="stop-color:#F9F9F9;stop-opacity:0.722"/>
		<stop  offset="1" style="stop-color:#E8EBF8;stop-opacity:0"/>
	</linearGradient>
	<path class="st1" d="M-12260.3-98.5c-0.2,0-0.5-0.1-0.7-0.2l-8.4-4.8c-0.1-0.1-0.2-0.2-0.2-0.3v-2.2l8.2,4.7c0.7,0.4,1.5,0.4,2.2,0
		l7-4.1c0.5-0.2,1-0.4,1.5-0.4c0.8,0,1.5,0.3,2.1,0.8l-11,6.4C-12259.8-98.5-12260.1-98.5-12260.3-98.5"/>
	<path class="st2" d="M-12260.3-93.9c-0.7,0-1.5-0.2-2.1-0.6l-9-5.2c-1.4-0.8-2.2-2.2-2.2-3.8l0-7.1c0-0.5,0.3-0.9,0.7-1.1l11.9-6.9
		c0.2-0.1,0.4-0.2,0.7-0.2c0.2,0,0.5,0.1,0.7,0.2l11,6.3c-0.3,0.2-0.6,0.4-1,0.6c-0.9,0.3-1.9,0.2-2.7-0.2l-2.9-1.7l-4-2.3
		c-0.7-0.4-1.5-0.4-2.2,0l-10.1,5.8l0,6.5c0,0.8,0.4,1.6,1.1,2l9,5.2c0.3,0.2,0.7,0.3,1,0.3c0.4,0,0.7-0.1,1-0.3l11.7-6.8
		c0.2,1.3-0.4,2.7-1.6,3.4l-9.1,5.2C-12258.8-94.1-12259.6-93.9-12260.3-93.9"/>
	
		<linearGradient id="SVGID_00000065034424951255149800000016969536107539584142_" gradientUnits="userSpaceOnUse" x1="-12698.4023" y1="341.4407" x2="-12699.3828" y2="341.5087" gradientTransform="matrix(26.1297 0 0 -9.4789 319558.25 3118.4465)">
		<stop  offset="0" style="stop-color:#F9F9F9"/>
		<stop  offset="0.713" style="stop-color:#F5F6F9;stop-opacity:0.8"/>
		<stop  offset="1" style="stop-color:#E8EBF8;stop-opacity:0"/>
	</linearGradient>
	<path style="fill:url(#SVGID_00000065034424951255149800000016969536107539584142_);" d="M-12273.6-113.8c0-1.5,0.9-2.9,2.2-3.7
		l9-5.2c1.3-0.8,2.9-0.8,4.2,0l9.1,5.3c1.2,0.7,1.8,2,1.6,3.4l-11.7-6.8c-0.6-0.4-1.4-0.4-2.1,0L-12273.6-113.8z"/>
	<rect x="-12283" y="-134" class="st4" width="45" height="50.8"/>
	<path class="st5" d="M-12204.1-99.5c-3.6,0-6.1-2.7-6.1-6.4c0-3.8,2.5-6.4,6.1-6.4s6.1,2.7,6.1,6.4S-12200.5-99.5-12204.1-99.5
		 M-12204.2-109.9c-1.8,0-3,1.5-3,3.9c0,2.5,1.1,3.9,3,3.9h0.2c1.8,0,3-1.5,3-3.9c0-2.5-1.1-3.9-3-3.9H-12204.2z"/>
	<path class="st5" d="M-12196-100v-12c0-0.1,0.1-0.2,0.2-0.2h2.6c0.1,0,0.2,0.1,0.2,0.2v1.6c0.6-1.3,1.9-1.9,3.8-1.9h1.5
		c0.1,0,0.2,0.1,0.2,0.2v2.2c0,0.1-0.1,0.2-0.2,0.2h-1.6c-2.4,0-3.6,1.3-3.6,3.8v5.8c0,0.1-0.1,0.2-0.2,0.2h-2.6
		C-12195.9-99.8-12196-99.9-12196-100"/>
	<path class="st5" d="M-12168.7-99.7c-1.5,0.2-2.9-0.9-3.1-2.4c0-0.2,0-0.5,0-0.7v-6.8h-2.3c-0.1,0-0.2-0.1-0.2-0.2c0,0,0,0,0,0v-2
		c0-0.1,0.1-0.2,0.2-0.2c0,0,0,0,0,0h2.3v-3.7c0-0.1,0.1-0.2,0.2-0.2c0,0,0,0,0,0h2.6c0.1,0,0.2,0.1,0.2,0.2c0,0,0,0,0,0
		c0,0,0,0,0,0v3.7h3c0.1,0,0.2,0.1,0.2,0.2c0,0,0,0,0,0v2c0,0.1-0.1,0.2-0.2,0.2c0,0,0,0,0,0h-3v6.1c0,0.6,0.5,1.2,1.2,1.2h2.2
		c0.1,0,0.2,0.1,0.2,0.2c0,0,0,0,0,0v2.2c0,0.1-0.1,0.2-0.2,0.2c0,0,0,0,0,0h0L-12168.7-99.7z"/>
	<path class="st5" d="M-12157.8-99.5c-3.6,0-6.1-2.7-6.1-6.4c0-3.8,2.5-6.4,6.1-6.4s6.1,2.7,6.1,6.4S-12154.2-99.5-12157.8-99.5
		 M-12157.9-109.9c-1.8,0-3,1.5-3,3.9c0,2.5,1.1,3.9,3,3.9h0.2c1.8,0,3-1.5,3-3.9c0-2.5-1.1-3.9-3-3.9H-12157.9z"/>
	<path class="st5" d="M-12219.2-99.3c-4.5,0-7.4-3.7-7.4-9.3c0-5.6,3-9.4,7.6-9.4c3.6,0,6.3,2.5,6.9,6.3v0.1l-0.1,0.2
		c-0.1,0.1-0.1,0.1-0.2,0.1h-2.5c-0.1,0-0.4,0-0.4-0.2c-0.4-1.8-1.9-3.1-3.8-3c-2.7,0-4.3,2.3-4.3,5.9c0,3.6,1.7,5.9,4.3,5.9
		c1.8,0,3.4-1.2,3.9-3c0-0.1,0.2-0.2,0.3-0.2h2.6l0.1,0.1c0.1,0.1,0.1,0.2,0.1,0.3C-12212.6-102-12215.6-99.3-12219.2-99.3"/>
	<path class="st5" d="M-12180.6-99.5c-0.9,0-1.7-0.1-2.6-0.5c-0.7-0.3-1.4-0.7-2-1.3c-0.5-0.5-1-1.2-1.3-1.9
		c-0.3-0.7-0.5-1.5-0.4-2.4v-0.5c0-0.9,0.1-1.8,0.5-2.6c0.3-0.7,0.7-1.4,1.3-2c0.5-0.6,1.2-1,1.9-1.3c0.7-0.3,1.5-0.5,2.3-0.5
		c0.8,0,1.6,0.1,2.4,0.4c0.7,0.3,1.3,0.7,1.8,1.2c0.5,0.6,0.9,1.2,1.1,1.9c0.2,0.8,0.4,1.6,0.4,2.5v1.1c0,0.1-0.1,0.2-0.2,0.2l0,0
		h-8.2c0.1,0.4,0.2,0.9,0.4,1.3c0.2,0.3,0.4,0.6,0.7,0.9c0.3,0.3,0.6,0.5,1,0.6c0.4,0.2,0.8,0.2,1.3,0.2c0.6,0,1.2-0.1,1.8-0.4
		c0.5-0.2,0.9-0.5,1.3-0.9c0.1-0.1,0.2-0.1,0.3,0c0,0,0,0,0,0l1.3,1.3c0.1,0.1,0.1,0.2,0,0.3c-0.5,0.6-1.1,1.1-1.8,1.5
		C-12178.5-99.7-12179.6-99.5-12180.6-99.5 M-12178.4-107.1v-0.2c0-0.3-0.1-0.7-0.2-1c-0.2-0.6-0.7-1.1-1.3-1.4
		c-0.4-0.1-0.7-0.2-1.1-0.2c-0.3,0-0.7,0.1-1,0.2c-0.3,0.1-0.6,0.3-0.8,0.6c-0.2,0.3-0.5,0.6-0.6,0.9c-0.2,0.4-0.3,0.7-0.3,1.1
		L-12178.4-107.1z"/>
	<rect x="-12226.7" y="-118" class="st4" width="74.9" height="18.7"/>
</g>
</svg>
